# xmcd
#
# Track frame offsets:
#	150
#	17199
#	35774
#	52107
#	72648
#	91998
#	111288
#	125224
#	143665
#	166165
#	188873
#	207034
#	238685
#
# Disc length: 3411 seconds
#
# Revision: 2
# Processed by: cddbd v1.5.2PL0 Copyright (c) Steve Scherf et al.
# Submitted via: audiograbber 1.83.01
#
DISCID=c20d510d
DTITLE=Jaime López - Por los arrabales
DYEAR=2008
DGENRE=Rock
TTITLE0=Lobo loco
TTITLE1=Por los arrabales
TTITLE2=Anillo de diamante
TTITLE3=Tucán
TTITLE4=Tan lejos del Niágara
TTITLE5=Sírveme un agave
TTITLE6=Condominio
TTITLE7=Castillos en el viento
TTITLE8=Doroteo
TTITLE9=Nocaut
TTITLE10=Sólo estaba blofeando
TTITLE11=Alma de tabique
TTITLE12=La dosis de tu amor
EXTD=
EXTT0=
EXTT1=
EXTT2=
EXTT3=
EXTT4=
EXTT5=
EXTT6=
EXTT7=
EXTT8=
EXTT9=
EXTT10=
EXTT11=
EXTT12=
PLAYORDER=
